<svg width="819" height="500" viewBox="0 0 819 500" fill="none" xmlns="http://www.w3.org/2000/svg">
<g filter="url(#filter0_d_4_297)">
<path d="M207.632 351V348.48C211.952 348.48 214.472 347.68 215.192 346.08V285.72C214.472 284.12 211.952 283.32 207.632 283.32V280.8H237.752V283.32C233.432 283.32 230.912 284.12 230.192 285.72V346.08C230.912 347.68 233.432 348.48 237.752 348.48V351H207.632ZM253.712 351V348.48C255.632 348.48 257.112 348.36 258.152 348.12L230.792 313.32L260.192 284.16C259.072 283.6 257.032 283.32 254.072 283.32V280.8H272.912V283.32C272.192 283.32 271.552 283.36 270.992 283.44C270.432 283.44 269.912 283.52 269.432 283.68C268.952 283.84 268.552 283.96 268.232 284.04C267.912 284.12 267.592 284.28 267.272 284.52C266.952 284.76 266.712 284.92 266.552 285C266.472 285.08 266.272 285.28 265.952 285.6L265.472 286.08L243.632 307.56L273.752 346.56C274.792 347.84 277.312 348.48 281.312 348.48V351H253.712ZM333.626 351V348.48C337.306 348.48 339.626 348 340.586 347.04L333.866 328.68H310.826L304.586 346.32C305.386 347.76 307.866 348.48 312.026 348.48V351H292.346V348.48C296.746 348.48 299.266 347.64 299.906 345.96L323.186 280.8H332.906L356.426 345.96C356.986 347.64 359.546 348.48 364.106 348.48V351H333.626ZM322.226 296.76L312.266 324.72H332.426L322.226 296.76ZM406.995 352.2C403.075 352.2 399.075 351.6 394.995 350.4C390.915 349.2 388.795 348.6 388.635 348.6C388.155 348.6 387.595 348.84 386.955 349.32C386.315 349.8 385.995 350.36 385.995 351H383.235V332.04H385.875C386.755 336.76 389.395 340.64 393.795 343.68C398.195 346.64 402.355 348.12 406.275 348.12C410.275 348.12 413.475 347.08 415.875 345C418.355 342.84 419.595 340.04 419.595 336.6C419.595 335.4 419.195 334.24 418.395 333.12C417.675 331.92 416.475 330.72 414.795 329.52C413.195 328.24 411.755 327.2 410.475 326.4C409.195 325.52 407.315 324.36 404.835 322.92C402.435 321.48 400.715 320.44 399.675 319.8C388.795 313.08 383.355 305.88 383.355 298.2C383.355 293.48 385.515 289.2 389.835 285.36C394.155 281.52 398.995 279.6 404.355 279.6C406.755 279.6 409.675 280.2 413.115 281.4C416.555 282.6 418.475 283.2 418.875 283.2C419.835 283.2 420.315 282.4 420.315 280.8H423.075L424.275 298.92H421.635C421.155 295.64 418.995 292.28 415.155 288.84C411.315 285.4 407.755 283.68 404.475 283.68C400.875 283.68 398.155 284.84 396.315 287.16C394.475 289.4 393.555 291.8 393.555 294.36C393.555 295.4 393.915 296.44 394.635 297.48C395.355 298.44 396.515 299.52 398.115 300.72C399.715 301.92 401.115 302.92 402.315 303.72C403.515 304.44 405.355 305.52 407.835 306.96C410.315 308.4 412.035 309.4 412.995 309.96C418.515 313.32 422.835 316.8 425.955 320.4C429.075 324 430.635 328.28 430.635 333.24C430.635 339.16 428.235 343.8 423.435 347.16C418.635 350.52 413.155 352.2 406.995 352.2ZM454.002 351V348.48C458.322 348.48 460.842 347.68 461.562 346.08V285.72C460.842 284.12 458.322 283.32 454.002 283.32V280.8H484.362V283.32C480.042 283.32 477.522 284.12 476.802 285.72V312.48H503.322V285.72C502.602 284.12 500.082 283.32 495.762 283.32V280.8H526.122V283.32C521.802 283.32 519.282 284.12 518.562 285.72V346.08C519.282 347.68 521.802 348.48 526.122 348.48V351H495.762V348.48C500.082 348.48 502.602 347.68 503.322 346.08V316.56H476.802V346.08C477.522 347.68 480.042 348.48 484.362 348.48V351H454.002ZM550.344 351V348.48C554.664 348.48 557.184 347.68 557.904 346.08V285.72C557.184 284.12 554.664 283.32 550.344 283.32V280.8H579.864C589.784 280.8 597.304 282.6 602.424 286.2C607.544 289.8 610.104 293.92 610.104 298.56C610.104 302.96 608.784 306.84 606.144 310.2C603.504 313.48 599.584 315.88 594.384 317.4L610.344 345.96C611.144 347.64 613.784 348.48 618.264 348.48V351H613.104C606.784 351 602.104 350.64 599.064 349.92C596.104 349.2 593.864 347.48 592.344 344.76L577.824 319.08H573.144V346.08C573.864 347.68 576.384 348.48 580.704 348.48V351H550.344ZM573.144 284.88V315H577.104C582.544 315 586.704 313.8 589.584 311.4C592.464 308.92 593.904 304.68 593.904 298.68C593.904 294.04 592.264 290.6 588.984 288.36C585.784 286.04 581.344 284.88 575.664 284.88H573.144Z" fill="#28CA97"/>
</g>
<g filter="url(#filter1_d_4_297)">
<path d="M219.665 412.415C216.575 413.225 213.74 413.63 211.16 413.63C208.55 413.63 206.15 413.24 203.96 412.46C201.8 411.65 199.91 410.525 198.29 409.085C196.7 407.615 195.455 405.89 194.555 403.91C193.685 401.9 193.25 399.68 193.25 397.25C193.25 394.88 193.685 392.69 194.555 390.68C195.455 388.64 196.685 386.87 198.245 385.37C199.835 383.84 201.665 382.655 203.735 381.815C205.805 380.975 208.025 380.555 210.395 380.555C212.465 380.555 214.37 380.735 216.11 381.095C217.88 381.425 219.29 381.74 220.34 382.04L221.24 388.43L219.89 388.7C219.08 386.57 217.775 385.04 215.975 384.11C214.205 383.18 212.255 382.715 210.125 382.715C207.575 382.715 205.355 383.285 203.465 384.425C201.575 385.565 200.105 387.125 199.055 389.105C198.035 391.085 197.525 393.35 197.525 395.9C197.525 397.97 197.885 399.935 198.605 401.795C199.325 403.655 200.315 405.32 201.575 406.79C202.865 408.26 204.335 409.415 205.985 410.255C207.665 411.095 209.45 411.515 211.34 411.515C213.83 411.515 215.87 410.975 217.46 409.895C219.05 408.785 220.505 407.18 221.825 405.08L223.175 405.755L219.665 412.415ZM224.491 413V411.65C224.821 411.65 225.286 411.605 225.886 411.515C226.516 411.425 227.116 411.245 227.686 410.975L239.026 383.075L238.351 381.185L242.041 379.835L253.336 410.93C253.936 411.23 254.566 411.425 255.226 411.515C255.886 411.605 256.396 411.65 256.756 411.65V413H245.191V411.65C245.611 411.65 246.211 411.605 246.991 411.515C247.771 411.425 248.491 411.23 249.151 410.93L245.821 401.795H234.031L230.296 410.93C230.986 411.23 231.706 411.425 232.456 411.515C233.236 411.605 233.836 411.65 234.256 411.65V413H224.491ZM234.976 399.5H245.011L240.286 386.495L234.976 399.5ZM262.213 413V411.65C262.633 411.65 263.233 411.605 264.013 411.515C264.793 411.425 265.513 411.23 266.173 410.93V383.48H256.768C256.498 384.47 256.288 385.43 256.138 386.36C255.988 387.29 255.838 388.205 255.688 389.105H254.248V381.185H282.058L280.888 389.24L279.493 389.105C279.523 388.235 279.538 387.335 279.538 386.405C279.538 385.475 279.463 384.5 279.313 383.48H270.088V410.93C270.778 411.23 271.498 411.425 272.248 411.515C273.028 411.605 273.628 411.65 274.048 411.65V413H262.213ZM311.159 412.415C308.069 413.225 305.234 413.63 302.654 413.63C300.044 413.63 297.644 413.24 295.454 412.46C293.294 411.65 291.404 410.525 289.784 409.085C288.194 407.615 286.949 405.89 286.049 403.91C285.179 401.9 284.744 399.68 284.744 397.25C284.744 394.88 285.179 392.69 286.049 390.68C286.949 388.64 288.179 386.87 289.739 385.37C291.329 383.84 293.159 382.655 295.229 381.815C297.299 380.975 299.519 380.555 301.889 380.555C303.959 380.555 305.864 380.735 307.604 381.095C309.374 381.425 310.784 381.74 311.834 382.04L312.734 388.43L311.384 388.7C310.574 386.57 309.269 385.04 307.469 384.11C305.699 383.18 303.749 382.715 301.619 382.715C299.069 382.715 296.849 383.285 294.959 384.425C293.069 385.565 291.599 387.125 290.549 389.105C289.529 391.085 289.019 393.35 289.019 395.9C289.019 397.97 289.379 399.935 290.099 401.795C290.819 403.655 291.809 405.32 293.069 406.79C294.359 408.26 295.829 409.415 297.479 410.255C299.159 411.095 300.944 411.515 302.834 411.515C305.324 411.515 307.364 410.975 308.954 409.895C310.544 408.785 311.999 407.18 313.319 405.08L314.669 405.755L311.159 412.415ZM317.176 413V411.65C317.596 411.65 318.196 411.605 318.976 411.515C319.756 411.425 320.476 411.23 321.136 410.93V383.255C320.476 382.955 319.756 382.76 318.976 382.67C318.196 382.58 317.596 382.535 317.176 382.535V381.185H329.011V382.535C328.591 382.535 327.991 382.58 327.211 382.67C326.461 382.76 325.741 382.955 325.051 383.255V395.045H343.051V383.255C342.391 382.955 341.671 382.76 340.891 382.67C340.111 382.58 339.511 382.535 339.091 382.535V381.185H350.926V382.535C350.506 382.535 349.906 382.58 349.126 382.67C348.376 382.76 347.656 382.955 346.966 383.255V410.93C347.656 411.23 348.376 411.425 349.126 411.515C349.906 411.605 350.506 411.65 350.926 411.65V413H339.091V411.65C339.511 411.65 340.111 411.605 340.891 411.515C341.671 411.425 342.391 411.23 343.051 410.93V397.34H325.051V410.93C325.741 411.23 326.461 411.425 327.211 411.515C327.991 411.605 328.591 411.65 329.011 411.65V413H317.176ZM370.159 413V411.65C370.579 411.65 371.179 411.605 371.959 411.515C372.739 411.425 373.459 411.23 374.119 410.93V400.4L364.624 383.255C364.054 382.955 363.424 382.76 362.734 382.67C362.074 382.58 361.564 382.535 361.204 382.535V381.185H373.084V382.535C372.664 382.535 372.079 382.58 371.329 382.67C370.579 382.76 369.859 382.955 369.169 383.255L376.729 396.935L384.379 383.255C383.719 382.955 382.999 382.76 382.219 382.67C381.439 382.58 380.839 382.535 380.419 382.535V381.185H390.229V382.535C389.899 382.535 389.419 382.58 388.789 382.67C388.189 382.76 387.604 382.94 387.034 383.21L378.034 399.455V410.93C378.724 411.23 379.444 411.425 380.194 411.515C380.974 411.605 381.574 411.65 381.994 411.65V413H370.159ZM406.598 413.63C404.318 413.63 402.173 413.21 400.163 412.37C398.153 411.53 396.383 410.375 394.853 408.905C393.323 407.405 392.123 405.68 391.253 403.73C390.413 401.75 389.993 399.62 389.993 397.34C389.993 395.03 390.428 392.87 391.298 390.86C392.168 388.82 393.368 387.035 394.898 385.505C396.458 383.945 398.258 382.73 400.298 381.86C402.338 380.99 404.513 380.555 406.823 380.555C409.103 380.555 411.248 380.975 413.258 381.815C415.268 382.625 417.038 383.78 418.568 385.28C420.098 386.75 421.298 388.475 422.168 390.455C423.038 392.405 423.473 394.52 423.473 396.8C423.473 399.11 423.023 401.285 422.123 403.325C421.253 405.335 420.038 407.12 418.478 408.68C416.948 410.21 415.163 411.425 413.123 412.325C411.083 413.195 408.908 413.63 406.598 413.63ZM407.948 411.155C410.168 411.155 412.133 410.6 413.843 409.49C415.553 408.35 416.888 406.835 417.848 404.945C418.838 403.055 419.333 400.955 419.333 398.645C419.333 396.665 418.973 394.745 418.253 392.885C417.563 390.995 416.588 389.315 415.328 387.845C414.068 386.345 412.598 385.16 410.918 384.29C409.238 383.42 407.438 382.985 405.518 382.985C403.328 382.985 401.363 383.54 399.623 384.65C397.913 385.76 396.563 387.26 395.573 389.15C394.583 391.04 394.088 393.14 394.088 395.45C394.088 397.43 394.433 399.35 395.123 401.21C395.843 403.07 396.833 404.75 398.093 406.25C399.353 407.75 400.823 408.95 402.503 409.85C404.183 410.72 405.998 411.155 407.948 411.155ZM442.506 413.63C441.576 413.63 440.556 413.525 439.446 413.315C438.336 413.105 437.226 412.76 436.116 412.28C435.006 411.77 433.986 411.08 433.056 410.21C432.126 409.34 431.376 408.26 430.806 406.97C430.266 405.65 429.936 404.03 429.816 402.11C429.726 400.16 429.681 398.03 429.681 395.72V383.255C429.021 382.955 428.301 382.76 427.521 382.67C426.741 382.58 426.141 382.535 425.721 382.535V381.185H437.556V382.535C437.136 382.535 436.536 382.58 435.756 382.67C435.006 382.76 434.286 382.955 433.596 383.255V395.495C433.596 396.065 433.596 396.8 433.596 397.7C433.596 398.57 433.611 399.5 433.641 400.49C433.671 401.45 433.731 402.38 433.821 403.28C433.941 404.18 434.091 404.93 434.271 405.53C434.631 406.55 435.201 407.51 435.981 408.41C436.791 409.28 437.781 409.985 438.951 410.525C440.151 411.035 441.486 411.29 442.956 411.29C445.086 411.29 447.006 410.84 448.716 409.94C450.426 409.04 451.566 407.63 452.136 405.71C452.496 404.45 452.676 402.89 452.676 401.03C452.706 399.14 452.721 397.13 452.721 395V383.255C452.061 382.955 451.341 382.76 450.561 382.67C449.781 382.58 449.181 382.535 448.761 382.535V381.185H459.201V382.535C458.781 382.535 458.181 382.58 457.401 382.67C456.651 382.76 455.931 382.955 455.241 383.255V395.315C455.241 396.605 455.226 397.97 455.196 399.41C455.196 400.82 455.136 402.17 455.016 403.46C454.926 404.75 454.731 405.845 454.431 406.745C453.981 408.125 453.276 409.265 452.316 410.165C451.386 411.065 450.336 411.77 449.166 412.28C447.996 412.79 446.826 413.135 445.656 413.315C444.486 413.525 443.436 413.63 442.506 413.63ZM462.371 413V411.65C462.791 411.65 463.391 411.605 464.171 411.515C464.951 411.425 465.671 411.23 466.331 410.93V383.165C465.671 382.955 464.966 382.85 464.216 382.85C463.496 382.85 462.926 382.865 462.506 382.895L462.371 381.545C464.351 381.305 466.331 381.08 468.311 380.87C470.321 380.66 472.166 380.555 473.846 380.555C475.856 380.555 477.671 380.795 479.291 381.275C480.911 381.725 482.201 382.52 483.161 383.66C484.121 384.8 484.601 386.36 484.601 388.34C484.601 389.33 484.376 390.365 483.926 391.445C483.506 392.495 482.786 393.515 481.766 394.505C480.776 395.495 479.426 396.35 477.716 397.07C478.256 398.03 478.901 399.11 479.651 400.31C480.401 401.51 481.196 402.71 482.036 403.91C482.876 405.11 483.686 406.22 484.466 407.24C485.216 408.17 485.921 408.98 486.581 409.67C487.271 410.36 488.051 410.96 488.921 411.47C489.821 411.98 490.916 412.49 492.206 413L491.801 414.305C489.731 414.155 488.051 413.9 486.761 413.54C485.501 413.18 484.436 412.685 483.566 412.055C482.726 411.395 481.901 410.615 481.091 409.715C480.611 409.175 480.056 408.41 479.426 407.42C478.796 406.43 478.151 405.365 477.491 404.225C476.831 403.055 476.186 401.93 475.556 400.85C474.956 399.77 474.446 398.87 474.026 398.15C473.456 398.27 472.856 398.39 472.226 398.51C471.596 398.6 470.936 398.675 470.246 398.735V410.93C470.936 411.23 471.686 411.425 472.496 411.515C473.306 411.605 473.936 411.65 474.386 411.65V413H462.371ZM470.246 397.115C472.556 397.025 474.476 396.59 476.006 395.81C477.566 395.03 478.736 394.07 479.516 392.93C480.296 391.79 480.686 390.62 480.686 389.42C480.686 387.65 480.236 386.255 479.336 385.235C478.436 384.185 477.191 383.48 475.601 383.12C474.041 382.73 472.256 382.67 470.246 382.94V397.115ZM528.469 412.415C525.379 413.225 522.544 413.63 519.964 413.63C517.354 413.63 514.954 413.24 512.764 412.46C510.604 411.65 508.714 410.525 507.094 409.085C505.504 407.615 504.259 405.89 503.359 403.91C502.489 401.9 502.054 399.68 502.054 397.25C502.054 394.88 502.489 392.69 503.359 390.68C504.259 388.64 505.489 386.87 507.049 385.37C508.639 383.84 510.469 382.655 512.539 381.815C514.609 380.975 516.829 380.555 519.199 380.555C521.269 380.555 523.174 380.735 524.914 381.095C526.684 381.425 528.094 381.74 529.144 382.04L530.044 388.43L528.694 388.7C527.884 386.57 526.579 385.04 524.779 384.11C523.009 383.18 521.059 382.715 518.929 382.715C516.379 382.715 514.159 383.285 512.269 384.425C510.379 385.565 508.909 387.125 507.859 389.105C506.839 391.085 506.329 393.35 506.329 395.9C506.329 397.97 506.689 399.935 507.409 401.795C508.129 403.655 509.119 405.32 510.379 406.79C511.669 408.26 513.139 409.415 514.789 410.255C516.469 411.095 518.254 411.515 520.144 411.515C522.634 411.515 524.674 410.975 526.264 409.895C527.854 408.785 529.309 407.18 530.629 405.08L531.979 405.755L528.469 412.415ZM533.294 413V411.65C533.624 411.65 534.089 411.605 534.689 411.515C535.319 411.425 535.919 411.245 536.489 410.975L547.829 383.075L547.154 381.185L550.844 379.835L562.139 410.93C562.739 411.23 563.369 411.425 564.029 411.515C564.689 411.605 565.199 411.65 565.559 411.65V413H553.994V411.65C554.414 411.65 555.014 411.605 555.794 411.515C556.574 411.425 557.294 411.23 557.954 410.93L554.624 401.795H542.834L539.099 410.93C539.789 411.23 540.509 411.425 541.259 411.515C542.039 411.605 542.639 411.65 543.059 411.65V413H533.294ZM543.779 399.5H553.814L549.089 386.495L543.779 399.5ZM577.522 413.63C576.112 413.63 574.747 413.51 573.427 413.27C572.137 413.06 571.057 412.82 570.187 412.55C569.317 412.28 568.837 412.085 568.747 411.965L567.352 403.325L568.837 403.055C569.437 405.635 570.352 407.69 571.582 409.22C572.812 410.75 574.642 411.515 577.072 411.515C579.052 411.515 580.672 411.035 581.932 410.075C583.192 409.085 583.822 407.735 583.822 406.025C583.822 404.825 583.477 403.775 582.787 402.875C582.097 401.945 581.197 401.105 580.087 400.355C579.007 399.605 577.837 398.87 576.577 398.15C575.347 397.4 574.177 396.605 573.067 395.765C571.987 394.895 571.102 393.905 570.412 392.795C569.722 391.685 569.377 390.365 569.377 388.835C569.377 386.975 569.857 385.445 570.817 384.245C571.777 383.015 573.067 382.1 574.687 381.5C576.307 380.87 578.092 380.555 580.042 380.555C581.422 380.555 582.667 380.675 583.777 380.915C584.887 381.125 585.727 381.29 586.297 381.41L587.287 388.7L585.802 388.88C585.562 386.99 584.962 385.475 584.002 384.335C583.042 383.195 581.617 382.625 579.727 382.625C578.587 382.625 577.522 382.85 576.532 383.3C575.572 383.75 574.792 384.365 574.192 385.145C573.622 385.925 573.337 386.81 573.337 387.8C573.337 388.97 573.682 389.99 574.372 390.86C575.092 391.73 576.007 392.525 577.117 393.245C578.227 393.935 579.397 394.64 580.627 395.36C581.857 396.08 583.027 396.89 584.137 397.79C585.247 398.69 586.147 399.755 586.837 400.985C587.557 402.215 587.917 403.7 587.917 405.44C587.917 407.21 587.452 408.71 586.522 409.94C585.592 411.14 584.347 412.055 582.787 412.685C581.227 413.315 579.472 413.63 577.522 413.63ZM592.449 413V411.65C592.869 411.65 593.469 411.605 594.249 411.515C595.029 411.425 595.749 411.23 596.409 410.93V383.255C595.749 382.955 595.029 382.76 594.249 382.67C593.469 382.58 592.869 382.535 592.449 382.535V381.185H604.284V382.535C603.864 382.535 603.264 382.58 602.484 382.67C601.734 382.76 601.014 382.955 600.324 383.255V395.045H618.324V383.255C617.664 382.955 616.944 382.76 616.164 382.67C615.384 382.58 614.784 382.535 614.364 382.535V381.185H626.199V382.535C625.779 382.535 625.179 382.58 624.399 382.67C623.649 382.76 622.929 382.955 622.239 383.255V410.93C622.929 411.23 623.649 411.425 624.399 411.515C625.179 411.605 625.779 411.65 626.199 411.65V413H614.364V411.65C614.784 411.65 615.384 411.605 616.164 411.515C616.944 411.425 617.664 411.23 618.324 410.93V397.34H600.324V410.93C601.014 411.23 601.734 411.425 602.484 411.515C603.264 411.605 603.864 411.65 604.284 411.65V413H592.449Z" fill="#FFD666"/>
</g>
<g filter="url(#filter2_d_4_297)">
<path d="M265.991 93.2947C269.568 84.5155 279.394 81.2094 288.413 84.1306C314.873 92.701 370.4 109 410 109C448.672 109 502.533 93.456 529.679 84.7456C539.555 81.5768 550.349 85.7848 553.949 95.5116C559.051 109.296 565 130.512 565 154.5C565 178.488 559.051 199.704 553.949 213.488C550.349 223.215 539.555 227.423 529.679 224.254C502.533 215.544 448.672 200 410 200C370.4 200 314.873 216.299 288.413 224.869C279.394 227.791 269.568 224.485 265.991 215.705C260.902 203.217 255 182.661 255 154.5C255 126.339 260.902 105.783 265.991 93.2947Z" fill="#28CA97"/>
<circle cx="410.5" cy="154.5" r="27.5" fill="#FFD666"/>
</g>
<defs>
<filter id="filter0_d_4_297" x="205.632" y="279.6" width="414.633" height="76.5999" filterUnits="userSpaceOnUse" color-interpolation-filters="sRGB">
<feFlood flood-opacity="0" result="BackgroundImageFix"/>
<feColorMatrix in="SourceAlpha" type="matrix" values="0 0 0 0 0 0 0 0 0 0 0 0 0 0 0 0 0 0 127 0" result="hardAlpha"/>
<feOffset dy="2"/>
<feGaussianBlur stdDeviation="1"/>
<feComposite in2="hardAlpha" operator="out"/>
<feColorMatrix type="matrix" values="0 0 0 0 0 0 0 0 0 0 0 0 0 0 0 0 0 0 0.25 0"/>
<feBlend mode="normal" in2="BackgroundImageFix" result="effect1_dropShadow_4_297"/>
<feBlend mode="normal" in="SourceGraphic" in2="effect1_dropShadow_4_297" result="shape"/>
</filter>
<filter id="filter1_d_4_297" x="191.25" y="379.835" width="436.949" height="38.4702" filterUnits="userSpaceOnUse" color-interpolation-filters="sRGB">
<feFlood flood-opacity="0" result="BackgroundImageFix"/>
<feColorMatrix in="SourceAlpha" type="matrix" values="0 0 0 0 0 0 0 0 0 0 0 0 0 0 0 0 0 0 127 0" result="hardAlpha"/>
<feOffset dy="2"/>
<feGaussianBlur stdDeviation="1"/>
<feComposite in2="hardAlpha" operator="out"/>
<feColorMatrix type="matrix" values="0 0 0 0 0 0 0 0 0 0 0 0 0 0 0 0 0 0 0.25 0"/>
<feBlend mode="normal" in2="BackgroundImageFix" result="effect1_dropShadow_4_297"/>
<feBlend mode="normal" in="SourceGraphic" in2="effect1_dropShadow_4_297" result="shape"/>
</filter>
<filter id="filter2_d_4_297" x="253" y="83.093" width="314" height="146.814" filterUnits="userSpaceOnUse" color-interpolation-filters="sRGB">
<feFlood flood-opacity="0" result="BackgroundImageFix"/>
<feColorMatrix in="SourceAlpha" type="matrix" values="0 0 0 0 0 0 0 0 0 0 0 0 0 0 0 0 0 0 127 0" result="hardAlpha"/>
<feOffset dy="2"/>
<feGaussianBlur stdDeviation="1"/>
<feComposite in2="hardAlpha" operator="out"/>
<feColorMatrix type="matrix" values="0 0 0 0 0 0 0 0 0 0 0 0 0 0 0 0 0 0 0.25 0"/>
<feBlend mode="normal" in2="BackgroundImageFix" result="effect1_dropShadow_4_297"/>
<feBlend mode="normal" in="SourceGraphic" in2="effect1_dropShadow_4_297" result="shape"/>
</filter>
</defs>
</svg>
